# xmcd CD database file
#
# Track frame offsets:
#	150
#	29511
#	34695
#	46571
#	58540
#	87429
#	110826
#	126990
#	156166
#	176393
#	191791
#	222094
#
# Disc length: 3255 seconds
#
# Revision: 0
# Processed by: cddbd v1.5.2PL0 Copyright (c) Steve Scherf et al.
# Submitted via: CDex 1.70beta2
#
DISCID=a30cb50c
DTITLE=The Cherubs - To Those Born Later
DYEAR=2007
DGENRE=Jazz
TTITLE0=25 Minutes
TTITLE1=To Those Born Later
TTITLE2=The Ballads Of Marie Sanders
TTITLE3=Eastern Front
TTITLE4=Dark Star
TTITLE5=Simple Simon
TTITLE6=Summer
TTITLE7=The Sea and the Sun
TTITLE8=Somg For Rachel
TTITLE9=The Song Of A German Mother
TTITLE10=Nicaragua
TTITLE11=It Never Entered My Mind
EXTD=YEAR: 2007
EXTT0=
EXTT1=
EXTT2=
EXTT3=
EXTT4=
EXTT5=
EXTT6=
EXTT7=
EXTT8=
EXTT9=
EXTT10=
EXTT11=
PLAYORDER=
